<?xml version="1.0" encoding="iso-8859-1"?>
<!-- Generator: Adobe Illustrator 19.0.0, SVG Export Plug-In . SVG Version: 6.00 Build 0)  -->
<svg version="1.1" id="Layer_1" xmlns="http://www.w3.org/2000/svg" xmlns:xlink="http://www.w3.org/1999/xlink" x="0px" y="0px"
	 viewBox="0 0 512 512" style="enable-background:new 0 0 512 512;" xml:space="preserve">
<style>
	.color{
		fill: #00830C;
	}
</style>
<g>
	<g>
		<path class="color" d="M484.661,159.342l14.322-14.898l-13.156-11.523c-33.716-29.527-67.853-33.598-99.721-33.598
			c-16.193,0-32.194,3.507-46.799,10.18c-22.215-11.267-50.1-16.986-83.273-16.986c-0.022-0.001-0.046,0-0.061,0
			c-33.174,0-61.063,5.719-83.278,16.986c-14.605-6.674-30.606-10.181-46.799-10.181c-31.868,0-66.005,4.07-99.721,33.598
			l-13.156,11.523l14.322,14.898C14.868,171.349,0,191.878,0,221.516v20.618l19.485-4.143c4.779,30.253,19.84,48.841,32.833,59.589
			c14.104,11.666,32.226,19.418,52.363,22.608c3.467,21.212,10.902,40.231,24.309,56.053c24.656,29.098,66.203,43.243,127.01,43.243
			s102.354-14.145,127.011-43.243c13.407-15.822,20.843-34.841,24.309-56.053c20.137-3.19,38.259-10.942,52.363-22.608
			c12.993-10.746,28.053-29.335,32.833-59.588L512,242.135v-20.618C512,191.878,497.132,171.349,484.661,159.342z M193.506,227.228
			c-9.125,0-16.55-7.453-16.55"/>
	</g>
</g>
<g>
</g>
<g>
</g>
<g>
</g>
<g>
</g>
<g>
</g>
<g>
</g>
<g>
</g>
<g>
</g>
<g>
</g>
<g>
</g>
<g>
</g>
<g>
</g>
<g>
</g>
<g>
</g>
<g>
</g>
</svg>
