<svg version="1.1" xmlns="http://www.w3.org/2000/svg" xmlns:xlink="http://www.w3.org/1999/xlink" x="0px" y="0px" viewBox="0 0 256 256" enable-background="new 0 0 256 256" xml:space="preserve">
<g><g><g><path fill="#586658" d="M117.9,10.6C104.8,12,91,17,80,24.3C61.5,36.5,48.9,55.5,44.5,77.7c-1.6,7.8-1.5,21.3,0.2,29.2c5.9,27.7,25.8,65.4,55.9,105.9c12.3,16.5,25.4,32.7,26.8,33c1.7,0.5,2.3-0.1,12.2-12.4c35.7-44.6,60.4-86.3,69.2-116.7c3.4-11.9,3.9-15.2,3.9-25c0-10-0.9-15.6-3.7-24.5C196.9,29.7,158.8,6,117.9,10.6z M135.4,16.1c11.2,1.1,19.3,3.4,29.5,8.4c18.2,9.1,32.1,25,38.5,44.1c2.6,7.8,3.6,14.6,3.6,24.2c0,9.2-1.2,16.3-4.6,26.2c-8.6,25.3-28.5,59.5-56.2,96.4c-7.1,9.5-17.7,22.8-18.1,22.8c-0.8,0-20.6-25.8-29.6-38.5c-30-42.8-46.4-76.2-49.1-100.3c-1.2-10.5,0.8-24.5,5.1-35.3c6.9-17.2,21.1-32.3,38.3-40.4C106.4,17.2,120.8,14.7,135.4,16.1z"/><path fill="#586658" d="M120.5,58c-17,3.9-28.5,17.4-29.4,34.4c-0.6,11.1,2.9,20.2,10.7,28.1c7.4,7.4,16,11,26.2,11s18.8-3.6,26.2-11c7.9-7.8,11.3-16.9,10.7-28.1c-1-19.3-16.2-34.2-35.5-34.9C125.9,57.3,122.6,57.5,120.5,58z M137.8,64.5c5,1.7,9.3,4.5,13.2,8.6c3.9,4.3,6.5,9.2,7.7,14.7c1.1,5.3,1.1,8.8-0.3,14c-1.5,5.9-4.1,10.6-8.2,14.7c-12.2,12.2-31.8,12.3-44.1,0.2c-12.2-12-12.7-31.2-1-43.6c4.9-5.2,11-8.6,17.6-9.8C126.7,62.6,133.8,63.2,137.8,64.5z"/></g></g></g>
</svg>