<?xml version="1.0" encoding="UTF-8"?>
<svg id="Calque_2" data-name="Calque 2" xmlns="http://www.w3.org/2000/svg" width="600" height="600" viewBox="0 0 600 600">
  <g id="Calque_1-2" data-name="Calque 1">
    <g>
      <path d="M46.15,106.09h7.69c43.72,0,81.69,29.63,92.31,72.06l51.26,205.05c13.54,54.25,62.09,92.12,117.97,92.12s104.43-37.88,117.97-92.12l51.26-205.05c10.62-42.43,48.59-72.06,92.31-72.06,12.74,0,23.08-10.34,23.08-23.08s-10.34-23.08-23.08-23.08c-64.95,0-121.29,44.03-137.08,107.05l-51.26,205.05c-8.4,33.66-38.52,57.14-73.2,57.14s-64.77-23.51-73.2-57.14l-51.26-205.05c-15.79-63.02-72.12-107.05-137.08-107.05h-7.69"/>
      <path d="M46.15,515.23c0,21.35,17.26,38.61,38.46,38.61h492.31c12.74,0,23.08,10.34,23.08,23.08s-10.34,23.08-23.08,23.08H84.62c-46.68,0-84.62-37.94-84.62-84.61V23.08C0,10.34,10.34,0,23.08,0s23.08,10.34,23.08,23.08"/>
    </g>
  </g>
</svg>