<svg width="800" height="800" viewBox="0 0 800 800" fill="none" xmlns="http://www.w3.org/2000/svg">
<style>
  .color{
    fill: #00830C;
  }
</style>
<path class="color" d="M700 676.923C700 689.662 689.662 700 676.923 700H184.615C137.938 700 100 662.062 100 615.385V123.077C100 110.338 110.338 100 123.077 100C135.815 100 146.154 110.338 146.154 123.077V530.769H153.846C197.569 530.769 235.538 501.138 246.154 458.708L297.415 253.662C310.954 199.415 359.508 161.538 415.385 161.538C471.262 161.538 519.815 199.415 533.354 253.662L584.615 458.708C595.231 501.138 633.2 530.769 676.923 530.769C689.662 530.769 700 541.108 700 553.846C700 566.585 689.662 576.923 676.923 576.923C611.969 576.923 555.631 532.892 539.846 469.877L488.585 264.831C480.185 231.169 450.062 207.692 415.385 207.692C380.708 207.692 350.615 231.2 342.185 264.831L290.923 469.877C275.138 532.892 218.8 576.923 153.846 576.923H146.154V615.231C146.154 636.585 163.415 653.846 184.615 653.846H676.923C689.662 653.846 700 664.185 700 676.923Z" fill="black"/>
</svg>
