<?xml version="1.0" encoding="UTF-8"?>
<svg id="Calque_2" data-name="Calque 2" xmlns="http://www.w3.org/2000/svg" width="1190.37" height="1700.03" viewBox="0 0 1190.37 1700.03">
  <defs>
    <style>
    
      .cls-1 {
        fill: #00830C;
      }
    </style>
  </defs>
  <g id="_Ñëîé_1" data-name="Ñëîé 1">
    <g>
      <g>
        <path class="cls-1" d="M1137.13,1095.21c125.47-383.58,14.44-667.78-179.78-698.36-205.4-7.51-324.58,327.18-185.1,665.96,124.03-37.83,245.35-25.49,364.88,32.4Z"/>
        <path class="cls-1" d="M741.23,1277.35c-94.71,249.68-68.08,392.72,89.76,420.43,175.47,23.27,230.32-136.22,247.64-352.59-125.48-1.35-239.06-22.14-337.4-67.84Z"/>
      </g>
      <g>
        <path class="cls-1" d="M53.23,698.48C-72.23,314.9,38.79,30.71,233.01,.12c205.4-7.51,324.58,327.18,185.1,665.96-124.03-37.83-245.35-25.49-364.88,32.4Z"/>
        <path class="cls-1" d="M449.14,880.61c94.71,249.68,68.08,392.72-89.76,420.43-175.47,23.27-230.32-136.22-247.64-352.59,125.48-1.35,239.06-22.14,337.4-67.84Z"/>
      </g>
    </g>
  </g>
</svg>